<svg id="Group_1207" data-name="Group 1207" xmlns="http://www.w3.org/2000/svg" xmlns:xlink="http://www.w3.org/1999/xlink" width="167.64" height="213.432" viewBox="0 0 167.64 213.432">
  <defs>
    <clipPath id="clip-path">
      <path id="Path_1609" data-name="Path 1609" d="M57.364,44.709a2.1,2.1,0,0,0-2.2.7c-1.216,1.515-4.43,4.555-12.756,9.064C29.971,61.205,8.9,80.546,6.831,115.6c-1.691,28.588.295,44.428,1.085,49.3a4.087,4.087,0,0,1-.714,3.046L2,175.179s-4.49,6.044,0,10.189,28.465,17.1,81.825,13.124c53.359,3.971,77.334-8.981,81.824-13.124s0-10.189,0-10.189l-4.82-6.695a5.7,5.7,0,0,1-1-4.2c.841-5.5,2.612-21.2.987-48.684-2.071-35.055-23.139-54.4-35.572-61.13-9.468-5.128-18.5-11.107-22.272-13.668a3.275,3.275,0,0,0-3.6-.045c-4.8,3.029-19.33,10.19-42,3.95" transform="translate(0 -40.241)" fill="#e3e5e6"/>
    </clipPath>
  </defs>
  <g id="Group_1991" data-name="Group 1991">
    <path id="Path_1695" data-name="Path 1695" d="M57.364,44.709a2.1,2.1,0,0,0-2.2.7c-1.216,1.515-4.43,4.555-12.756,9.064C29.971,61.205,8.9,80.546,6.831,115.6c-1.691,28.588.295,44.428,1.085,49.3a4.087,4.087,0,0,1-.714,3.046L2,175.179s-4.49,6.044,0,10.189,28.465,17.1,81.825,13.124c53.359,3.971,77.334-8.981,81.824-13.124s0-10.189,0-10.189l-4.82-6.695a5.7,5.7,0,0,1-1-4.2c.841-5.5,2.612-21.2.987-48.684-2.071-35.055-23.139-54.4-35.572-61.13-9.468-5.128-18.5-11.107-22.272-13.668a3.275,3.275,0,0,0-3.6-.045c-4.8,3.029-19.33,10.19-42,3.95" transform="translate(0 14.193)" fill="#e3e5e6"/>
    <path id="Path_1607" data-name="Path 1607" d="M58.6,48.52a14.869,14.869,0,0,1-10.811-5.493c-2.8-3.472-7.121-8.128-11.77-10.57-8-4.2-12.2-6.5-10.3-10.3s10.65-5.871,19.111.288,12.721-7.31,12.721-7.31S62.5,3.5,71.137,7.935s15.2-4.143,15.2-4.143,6.562-8.174,8.4-.518-5.526,10.705-5.526,10.705-1.554,9.211-.115,15.428,2.3,9.152-.058,11.11c-2.024,1.677-15.468,8.77-30.435,8" transform="translate(8.912 0)" fill="#e3e5e6"/>
    <path id="Path_1608" data-name="Path 1608" d="M40.3,37.545a4.388,4.388,0,0,1,3.5.032c2.793,1.246,10.58,4.042,21.486,2.5a52.377,52.377,0,0,0,21.154-7.967,4.624,4.624,0,0,1,4.659-.352c1.368.7,2.183,2.034-.248,4.521-4.728,4.835-13.765,9.036-24.126,10.072s-22.911-1.9-27.86-4.028c-3.543-1.525-.955-3.755,1.437-4.775" transform="translate(13.095 11.033)" fill="#e3e5e6"/>
  </g>
  <g id="Mask_Group_167" data-name="Mask Group 167" transform="translate(0 54.435)" clip-path="url(#clip-path)">
    <path id="Path_1610" data-name="Path 1610" d="M57.364,44.709a2.1,2.1,0,0,0-2.2.7c-1.216,1.515-4.43,4.555-12.756,9.064C29.971,61.205,8.9,80.546,6.831,115.6c-1.691,28.588.295,44.428,1.085,49.3a4.087,4.087,0,0,1-.714,3.046L2,175.179s-4.49,6.044,0,10.189,28.465,17.1,81.825,13.124c53.359,3.971,77.334-8.981,81.824-13.124s0-10.189,0-10.189l-4.82-6.695a5.7,5.7,0,0,1-1-4.2c.841-5.5,2.612-21.2.987-48.684-2.071-35.055-23.139-54.4-35.572-61.13-9.468-5.128-18.5-11.107-22.272-13.668a3.275,3.275,0,0,0-3.6-.045c-4.8,3.029-19.33,10.19-42,3.95" transform="translate(0 -40.241)" fill="#e3e5e6"/>
    <path id="Path_1611" data-name="Path 1611" d="M0,0H336.824V151.5H0Z" transform="translate(-70.388 86.247)" fill="#e39a00"/>
  </g>
</svg>
